<?xml version="1.0" standalone="no"?>
<!DOCTYPE svg PUBLIC "-//W3C//DTD SVG 20010904//EN"
 "http://www.w3.org/TR/2001/REC-SVG-20010904/DTD/svg10.dtd">
<svg version="1.0" xmlns="http://www.w3.org/2000/svg"
 width="512.000000pt" height="512.000000pt" viewBox="0 0 512.000000 512.000000"
 preserveAspectRatio="xMidYMid meet">
<metadata>
Created by potrace 1.14, written by Peter Selinger 2001-2017
</metadata>
<g transform="translate(0.000000,512.000000) scale(0.100000,-0.100000)"
fill="#000000" stroke="none">
<path d="M775 5106 c-165 -39 -302 -166 -361 -336 l-23 -65 2 -2045 c1 -1125
6 -2058 10 -2075 5 -16 12 -34 18 -40 5 -5 9 -15 9 -23 0 -28 94 -154 144
-194 57 -46 150 -91 211 -103 22 -5 103 -9 180 -11 77 -1 147 -3 155 -3 9 -1
16 -13 17 -32 4 -49 48 -115 97 -144 67 -39 117 -41 235 -9 l102 27 67 -17
c157 -41 201 -43 261 -12 45 24 101 95 108 138 3 21 10 41 16 45 6 4 499 7
1095 7 l1084 1 24 28 c30 35 31 74 1 111 -23 28 -26 29 -120 29 l-97 0 -1 69
c-1 86 -1 133 0 156 1 9 14 23 29 30 46 20 52 47 52 236 l0 172 50 23 c61 28
123 96 140 155 7 24 12 76 13 115 1 80 -1 78 87 80 67 2 115 16 156 46 21 16
35 20 45 14 27 -17 65 -9 91 18 50 55 53 77 53 378 l0 280 -26 55 c-33 71 -93
131 -165 166 -47 23 -74 29 -149 32 l-92 4 0 74 1 74 60 1 c91 1 122 7 179 34
70 32 129 91 163 162 l29 58 0 285 0 285 -28 57 c-49 100 -129 146 -177 103
-14 -13 -23 -13 -46 -5 -16 6 -62 12 -101 12 -40 0 -74 3 -74 7 -1 3 -3 54 -4
113 -2 73 1 108 9 111 6 2 44 4 83 5 153 4 269 87 323 231 18 46 20 77 20 302
0 167 -4 266 -12 293 -18 62 -65 132 -97 145 -27 12 -76 7 -86 -9 -3 -5 -28 0
-55 11 -31 12 -76 19 -118 19 l-67 0 -3 73 c-4 127 -70 220 -179 253 -64 19
-2564 21 -2602 1 -14 -6 -32 -25 -41 -42 l-17 -30 -196 0 -196 0 -7 28 c-9 42
-49 57 -146 56 -46 -1 -105 -7 -133 -13z"/>
</g>
</svg>
